<?xml version="1.0" encoding="UTF-8" standalone="no"?>
<!DOCTYPE svg PUBLIC "-//W3C//DTD SVG 1.1//EN" "http://www.w3.org/Graphics/SVG/1.1/DTD/svg11.dtd">
<svg width="100%" height="100%" viewBox="0 0 512 512" version="1.1" xmlns="http://www.w3.org/2000/svg" xmlns:xlink="http://www.w3.org/1999/xlink" xml:space="preserve" xmlns:serif="http://www.serif.com/" style="fill-rule:evenodd;clip-rule:evenodd;stroke-linejoin:round;stroke-miterlimit:2;">
    <g id="Layer1">
        <g transform="matrix(1,0,0,0.720111,0,0)">
            <path d="M512,69.434C512,51.019 506.732,33.358 497.355,20.337C487.979,7.315 475.261,0 462,-0C364.053,0 147.947,0 50,0C36.739,0 24.021,7.315 14.645,20.337C5.268,33.358 -0,51.019 0,69.434C0,209.358 0,512 0,512L512,512L512,69.434Z" style="fill:rgb(110,125,146);"/>
        </g>
        <path d="M110.009,74.546C110.009,70.655 108.464,66.923 105.712,64.171C102.96,61.42 99.229,59.874 95.337,59.874C95.337,59.874 95.337,59.874 95.337,59.874C91.446,59.874 87.714,61.42 84.962,64.171C82.211,66.923 80.665,70.655 80.665,74.546C80.665,122.92 80.665,277.039 80.665,325.413C80.665,329.304 82.211,333.036 84.962,335.788C87.714,338.539 91.446,340.085 95.337,340.085C95.337,340.085 95.337,340.085 95.337,340.085C99.229,340.085 102.96,338.539 105.712,335.788C108.464,333.036 110.009,329.304 110.009,325.413C110.009,277.039 110.009,122.92 110.009,74.546Z" style="fill:rgb(92,99,125);"/>
        <g transform="matrix(1,0,0,1,320.2,0)">
            <path d="M110.009,74.546C110.009,70.655 108.464,66.923 105.712,64.171C102.96,61.42 99.229,59.874 95.337,59.874C95.337,59.874 95.337,59.874 95.337,59.874C91.446,59.874 87.714,61.42 84.962,64.171C82.211,66.923 80.665,70.655 80.665,74.546C80.665,122.92 80.665,277.039 80.665,325.413C80.665,329.304 82.211,333.036 84.962,335.788C87.714,338.539 91.446,340.085 95.337,340.085C95.337,340.085 95.337,340.085 95.337,340.085C99.229,340.085 102.96,338.539 105.712,335.788C108.464,333.036 110.009,329.304 110.009,325.413C110.009,277.039 110.009,122.92 110.009,74.546Z" style="fill:rgb(92,99,125);"/>
        </g>
        <g transform="matrix(1,0,0,1,213.467,0)">
            <path d="M110.009,74.546C110.009,70.655 108.464,66.923 105.712,64.171C102.96,61.42 99.229,59.874 95.337,59.874C95.337,59.874 95.337,59.874 95.337,59.874C91.446,59.874 87.714,61.42 84.962,64.171C82.211,66.923 80.665,70.655 80.665,74.546C80.665,122.92 80.665,277.039 80.665,325.413C80.665,329.304 82.211,333.036 84.962,335.788C87.714,338.539 91.446,340.085 95.337,340.085C95.337,340.085 95.337,340.085 95.337,340.085C99.229,340.085 102.96,338.539 105.712,335.788C108.464,333.036 110.009,329.304 110.009,325.413C110.009,277.039 110.009,122.92 110.009,74.546Z" style="fill:rgb(92,99,125);"/>
        </g>
        <g transform="matrix(1,0,0,1,106.733,0)">
            <path d="M110.009,74.546C110.009,70.655 108.464,66.923 105.712,64.171C102.96,61.42 99.229,59.874 95.337,59.874C95.337,59.874 95.337,59.874 95.337,59.874C91.446,59.874 87.714,61.42 84.962,64.171C82.211,66.923 80.665,70.655 80.665,74.546C80.665,122.92 80.665,277.039 80.665,325.413C80.665,329.304 82.211,333.036 84.962,335.788C87.714,338.539 91.446,340.085 95.337,340.085C95.337,340.085 95.337,340.085 95.337,340.085C99.229,340.085 102.96,338.539 105.712,335.788C108.464,333.036 110.009,329.304 110.009,325.413C110.009,277.039 110.009,122.92 110.009,74.546Z" style="fill:rgb(92,99,125);"/>
        </g>
        <g transform="matrix(0.950099,0,0,1,6.89757,0)">
            <path d="M138.227,131.944C138.227,123.845 131.316,117.279 122.792,117.279L65.106,117.279C56.582,117.279 49.672,123.845 49.672,131.944L49.672,187.124C49.672,195.223 56.582,201.788 65.106,201.788L122.792,201.788C131.316,201.788 138.227,195.223 138.227,187.124L138.227,131.944Z" style="fill:rgb(255,233,111);"/>
        </g>
        <g transform="matrix(0.950099,0,0,1,219.213,0)">
            <path d="M138.227,131.944C138.227,123.845 131.316,117.279 122.792,117.279L65.106,117.279C56.582,117.279 49.672,123.845 49.672,131.944L49.672,187.124C49.672,195.223 56.582,201.788 65.106,201.788L122.792,201.788C131.316,201.788 138.227,195.223 138.227,187.124L138.227,131.944Z" style="fill:rgb(255,233,111);"/>
        </g>
        <g transform="matrix(0.950099,0,0,1,113.631,101.267)">
            <path d="M138.227,131.944C138.227,123.845 131.316,117.279 122.792,117.279L65.106,117.279C56.582,117.279 49.672,123.845 49.672,131.944L49.672,187.124C49.672,195.223 56.582,201.788 65.106,201.788L122.792,201.788C131.316,201.788 138.227,195.223 138.227,187.124L138.227,131.944Z" style="fill:rgb(255,233,111);"/>
        </g>
        <g transform="matrix(0.950099,0,0,1,326.522,99.8288)">
            <path d="M138.227,131.944C138.227,123.845 131.316,117.279 122.792,117.279L65.106,117.279C56.582,117.279 49.672,123.845 49.672,131.944L49.672,187.124C49.672,195.223 56.582,201.788 65.106,201.788L122.792,201.788C131.316,201.788 138.227,195.223 138.227,187.124L138.227,131.944Z" style="fill:rgb(255,233,111);"/>
        </g>
        <g transform="matrix(1.02618,0,0,4.39449,0,-1737.98)">
            <path d="M498.938,479.39L0,479.39L0,500.622C-0,503.64 5.133,506.534 14.271,508.667C23.409,510.801 35.802,512 48.724,512L450.214,512C463.136,512 475.53,510.801 484.667,508.667C493.805,506.534 498.938,503.64 498.938,500.622C498.938,491.214 498.938,479.39 498.938,479.39Z" style="fill:rgb(200,223,255);"/>
        </g>
        <g transform="matrix(0.950099,0,0,0.5,62.2404,360.581)">
            <path d="M138.227,146.608C138.227,138.83 136.6,131.37 133.706,125.869C130.811,120.369 126.885,117.279 122.792,117.279C106.6,117.279 81.298,117.279 65.106,117.279C61.013,117.279 57.087,120.369 54.192,125.869C51.298,131.37 49.672,138.83 49.672,146.608C49.672,154.976 49.672,164.091 49.672,172.459C49.672,180.238 51.298,187.698 54.192,193.198C57.087,198.698 61.013,201.788 65.106,201.788C81.298,201.788 106.6,201.788 122.792,201.788C126.885,201.788 130.811,198.698 133.706,193.198C136.6,187.698 138.227,180.238 138.227,172.459C138.227,164.091 138.227,154.976 138.227,146.608Z" style="fill:rgb(255,233,111);"/>
        </g>
        <g transform="matrix(0.950099,0,0,0.5,166.739,360.581)">
            <path d="M138.227,146.608C138.227,138.83 136.6,131.37 133.706,125.869C130.811,120.369 126.885,117.279 122.792,117.279C106.6,117.279 81.298,117.279 65.106,117.279C61.013,117.279 57.087,120.369 54.192,125.869C51.298,131.37 49.672,138.83 49.672,146.608C49.672,154.976 49.672,164.091 49.672,172.459C49.672,180.238 51.298,187.698 54.192,193.198C57.087,198.698 61.013,201.788 65.106,201.788C81.298,201.788 106.6,201.788 122.792,201.788C126.885,201.788 130.811,198.698 133.706,193.198C136.6,187.698 138.227,180.238 138.227,172.459C138.227,164.091 138.227,154.976 138.227,146.608Z" style="fill:rgb(255,233,111);"/>
        </g>
        <g transform="matrix(0.950099,0,0,0.5,271.238,360.581)">
            <path d="M138.227,146.608C138.227,138.83 136.6,131.37 133.706,125.869C130.811,120.369 126.885,117.279 122.792,117.279C106.6,117.279 81.298,117.279 65.106,117.279C61.013,117.279 57.087,120.369 54.192,125.869C51.298,131.37 49.672,138.83 49.672,146.608C49.672,154.976 49.672,164.091 49.672,172.459C49.672,180.238 51.298,187.698 54.192,193.198C57.087,198.698 61.013,201.788 65.106,201.788C81.298,201.788 106.6,201.788 122.792,201.788C126.885,201.788 130.811,198.698 133.706,193.198C136.6,187.698 138.227,180.238 138.227,172.459C138.227,164.091 138.227,154.976 138.227,146.608Z" style="fill:rgb(255,233,111);"/>
        </g>
    </g>
</svg>
